<svg width="42" height="42" viewBox="0 0 42 42" fill="none" xmlns="http://www.w3.org/2000/svg">
<path d="M21 0C9.40273 0 0 9.40273 0 21C0 32.5986 9.40273 42 21 42C32.5986 42 42 32.5986 42 21C42 9.40273 32.5986 0 21 0ZM21 39.375C10.8518 39.375 2.62504 31.1482 2.62504 21C2.62504 10.8518 10.8518 2.62504 21 2.62504C31.1482 2.62504 39.375 10.8518 39.375 21C39.375 31.1482 31.1482 39.375 21 39.375Z" fill="#034078"/>
<path d="M32.8125 19.6623H12.3467L19.1717 12.7389C19.6836 12.2217 19.6836 11.3818 19.1717 10.8647C18.6585 10.3475 17.8277 10.3475 17.3158 10.8647L8.26088 20.0508C8.01541 20.2963 7.875 20.6415 7.875 20.988C7.875 21.3332 8.01672 21.6784 8.25958 21.9252L17.3145 31.1113C17.8277 31.6298 18.6585 31.6285 19.1704 31.1113C19.6836 30.5929 19.6836 29.7542 19.1704 29.2358L12.3453 22.3123H32.8125C33.537 22.3123 34.125 21.7191 34.125 20.9867C34.125 20.2556 33.5369 19.6623 32.8125 19.6623Z" fill="#034078"/>
</svg>
