<svg width="196" height="196" viewBox="0 0 196 196" fill="none" xmlns="http://www.w3.org/2000/svg">
<path d="M98 19.6001C82.4053 19.6001 67.4493 25.7951 56.4221 36.8222C45.395 47.8494 39.2 62.8054 39.2 78.4001V113.543L32.2714 120.472C30.9013 121.842 29.9683 123.588 29.5903 125.489C29.2123 127.39 29.4064 129.36 30.148 131.15C30.8895 132.941 32.1453 134.471 33.7565 135.548C35.3677 136.625 37.2621 137.2 39.2 137.2H156.8C158.738 137.2 160.632 136.625 162.243 135.548C163.855 134.471 165.11 132.941 165.852 131.15C166.594 129.36 166.788 127.39 166.41 125.489C166.032 123.588 165.099 121.842 163.729 120.472L156.8 113.543V78.4001C156.8 62.8054 150.605 47.8494 139.578 36.8222C128.551 25.7951 113.595 19.6001 98 19.6001V19.6001ZM98 176.4C90.2026 176.4 82.7246 173.303 77.2111 167.789C71.6975 162.275 68.6 154.797 68.6 147H127.4C127.4 154.797 124.303 162.275 118.789 167.789C113.275 173.303 105.797 176.4 98 176.4Z" fill="#0085FF"/>
</svg>
