<svg width="78" height="78" viewBox="0 0 78 78" fill="none" xmlns="http://www.w3.org/2000/svg">
    <g clip-path="url(#clip0_225_3335)">
    <path d="M72.8664 34.1085L42.7213 34.1996V4.64777C42.7213 2.07285 40.6485 0 38.0736 0C35.4995 0 33.4258 2.07285 33.4258 4.64777L33.5169 34.1093H4.64777C2.07285 34.1093 0 36.1822 0 38.7571C0 41.3312 2.07285 43.404 4.64777 43.404H33.4714V72.8664C33.4714 75.4396 35.5442 77.5141 38.1191 77.5141C40.6941 77.5141 42.7669 75.4396 42.7669 72.8664V43.4048H72.8664C75.4413 43.4048 77.5141 41.3303 77.5141 38.7571C77.5141 36.1813 75.4181 34.1085 72.8664 34.1085Z" fill="#FF7F0D"/>
    </g>
    <defs>
    <clipPath id="clip0_225_3335">
    <rect width="77.5141" height="77.5141" fill="white"/>
    </clipPath>
    </defs>
    </svg>
    