<svg width="120" height="120" viewBox="0 0 120 120" fill="none" xmlns="http://www.w3.org/2000/svg">
<path fill-rule="evenodd" clip-rule="evenodd" d="M108 78V30C108 26.8174 106.736 23.7652 104.485 21.5147C102.235 19.2643 99.1826 18 96 18H24C20.8174 18 17.7652 19.2643 15.5147 21.5147C13.2643 23.7652 12 26.8174 12 30V78C12 81.1826 13.2643 84.2348 15.5147 86.4853C17.7652 88.7357 20.8174 90 24 90H42L60 108L78 90H96C99.1826 90 102.235 88.7357 104.485 86.4853C106.736 84.2348 108 81.1826 108 78ZM30 42C30 40.4087 30.6321 38.8826 31.7574 37.7574C32.8826 36.6321 34.4087 36 36 36H84C85.5913 36 87.1174 36.6321 88.2426 37.7574C89.3679 38.8826 90 40.4087 90 42C90 43.5913 89.3679 45.1174 88.2426 46.2426C87.1174 47.3679 85.5913 48 84 48H36C34.4087 48 32.8826 47.3679 31.7574 46.2426C30.6321 45.1174 30 43.5913 30 42ZM36 60C34.4087 60 32.8826 60.6321 31.7574 61.7574C30.6321 62.8826 30 64.4087 30 66C30 67.5913 30.6321 69.1174 31.7574 70.2426C32.8826 71.3679 34.4087 72 36 72H54C55.5913 72 57.1174 71.3679 58.2426 70.2426C59.3679 69.1174 60 67.5913 60 66C60 64.4087 59.3679 62.8826 58.2426 61.7574C57.1174 60.6321 55.5913 60 54 60H36Z" fill="#0085FF"/>
</svg>
