<svg width="10" height="11" viewBox="0 0 10 11" fill="none" xmlns="http://www.w3.org/2000/svg">
<g clip-path="url(#clip0_225_2602)">
<path d="M7.19475 6.51807L5.205 5.10075V2.66479C5.205 2.54999 5.11279 2.45605 5.00008 2.45605C4.88738 2.45605 4.79517 2.54999 4.79517 2.66479V5.21138C4.79517 5.28026 4.82795 5.34288 4.88328 5.38254L6.96115 6.86248C6.99598 6.88753 7.03697 6.90005 7.07795 6.90005C7.14148 6.90005 7.205 6.86874 7.24598 6.80821C7.30951 6.71428 7.28697 6.58486 7.19475 6.51807Z" fill="#000000"/>
<path d="M8.53279 1.61272C7.58607 0.648355 6.33197 0.118164 5 0.118164C3.66803 0.118164 2.41393 0.648355 1.46721 1.61272C0.520492 2.57708 0 3.85455 0 5.21133C0 6.56812 0.520492 7.84559 1.46721 8.80995C2.41393 9.77431 3.66803 10.3045 5 10.3045C6.33197 10.3045 7.58607 9.77431 8.53279 8.80995C9.47951 7.84559 10 6.56812 10 5.21133C10 3.85455 9.47951 2.57708 8.53279 1.61272ZM5.20492 9.88285V9.03121C5.20492 8.9164 5.1127 8.82247 5 8.82247C4.8873 8.82247 4.79508 8.9164 4.79508 9.03121V9.88285C2.42623 9.7764 0.518443 7.83306 0.413934 5.42007H1.25C1.3627 5.42007 1.45492 5.32614 1.45492 5.21133C1.45492 5.09653 1.3627 5.0026 1.25 5.0026H0.413934C0.518443 2.5896 2.42623 0.646267 4.79508 0.539812V1.39146C4.79508 1.50626 4.8873 1.60019 5 1.60019C5.1127 1.60019 5.20492 1.50626 5.20492 1.39146V0.539812C7.57377 0.646267 9.48156 2.5896 9.58607 5.0026H8.75C8.63729 5.0026 8.54508 5.09653 8.54508 5.21133C8.54508 5.32614 8.63729 5.42007 8.75 5.42007H9.58607C9.48156 7.83306 7.57377 9.7764 5.20492 9.88285Z" fill="#FF7F0D"/>
</g>
<defs>
<clipPath id="clip0_225_2602">
<rect width="10" height="10.1863" fill="white" transform="translate(0 0.118164)"/>
</clipPath>
</defs>
</svg>
