<svg width="23" height="23" viewBox="0 0 23 23" fill="none" xmlns="http://www.w3.org/2000/svg">
    <path d="M21.2967 0H8.58308C7.67698 0 6.93988 0.73715 6.93988 1.6432V5.4999C7.28913 5.4999 14.1434 5.4999 14.417 5.4999C16.1502 5.4999 17.5603 6.90995 17.5603 8.64315C17.5603 8.9676 17.5603 15.9177 17.5603 16.0001H21.2967C22.2027 16.0001 22.9399 15.2629 22.9399 14.3568V1.6432C22.9398 0.73715 22.2027 0 21.2967 0Z" fill="#8290A0"/>
    <path d="M14.4169 6.99976H1.70337C0.79732 6.99976 0.0601196 7.73691 0.0601196 8.64301V21.3566C0.0601696 22.2627 0.79727 22.9999 1.70337 22.9999H14.417C15.3231 22.9999 16.0602 22.2627 16.0602 21.3567V8.64301C16.0603 7.73691 15.323 6.99976 14.4169 6.99976Z" fill="#8290A0"/>
    </svg>
    