<svg width="59" height="59" viewBox="0 0 59 59" fill="none" xmlns="http://www.w3.org/2000/svg">
<g clip-path="url(#clip0_1021_3913)">
<path d="M52.524 45.5371C52.095 41.4301 48.672 38.2051 44.571 38.2051C42.007 38.2051 39.587 39.4911 38.091 41.6071C37.8 41.5561 37.505 41.5311 37.208 41.5311C34.888 41.5311 32.827 43.1081 32.142 45.3441C30.235 46.4751 29.026 48.5851 29.026 50.8461C29.026 54.3531 31.811 57.2051 35.234 57.2051H46.008C46.068 57.2051 46.126 57.2011 46.179 57.1971C46.241 57.2011 46.303 57.2051 46.367 57.2051H50.677C53.902 57.2051 56.526 54.5181 56.526 51.2161C56.525 48.6161 54.884 46.3421 52.524 45.5371ZM50.677 55.2051L46.325 55.2021L46.155 55.1961L35.233 55.2051C32.913 55.2051 31.025 53.2491 31.025 50.8461C31.025 49.1811 31.974 47.6361 33.442 46.9111L33.877 46.6971L33.979 46.2221C34.31 44.6621 35.668 43.5311 37.208 43.5311C37.553 43.5311 37.896 43.5881 38.228 43.6991L39.005 43.9601L39.413 43.2491C40.509 41.3431 42.437 40.2051 44.571 40.2051C47.836 40.2051 50.526 42.9521 50.569 46.3281L50.58 47.1411L51.379 47.2961C53.202 47.6501 54.525 49.2981 54.525 51.2151C54.525 53.4151 52.799 55.2051 50.677 55.2051Z" fill="#34A853"/>
<path d="M29.875 43.044C31.238 40.426 33.835 38.707 36.747 38.544C38.813 36.417 41.641 35.205 44.571 35.205C47.102 35.205 49.487 36.121 51.389 37.66C51.484 37.573 51.592 37.487 51.676 37.4V36.111V35.611V35.111V28C50.358 28.905 48.648 29.697 46.651 30.367C42.441 31.839 36.603 32.869 29.282 33.07C28.412 33.097 27.542 33.111 26.676 33.111C25.807 33.111 24.934 33.097 24.062 33.069C16.721 32.868 10.871 31.831 6.65896 30.352C4.67996 29.685 2.98396 28.899 1.67596 28V35.111V35.611V36.111V37.4C4.52196 40.371 14.07 43.111 26.676 43.111C27.769 43.111 28.83 43.083 29.875 43.044Z" fill="#34A853"/>
<path d="M24.311 29.9652C24.637 29.9742 24.962 29.9832 25.293 29.9882C25.749 29.9962 26.21 30.0002 26.676 30.0002C27.142 30.0002 27.602 29.9962 28.059 29.9892C28.389 29.9842 28.715 29.9742 29.041 29.9662C29.157 29.9632 29.275 29.9612 29.39 29.9582C40.643 29.5992 49.038 27.0432 51.676 24.2902V23.0002V22.5002V22.0002V14.8892C46.808 18.2322 36.52 20.0002 26.676 20.0002C16.832 20.0002 6.54296 18.2322 1.67596 14.8892V22.0002V22.5002V23.0002V24.2892C4.31396 27.0432 12.709 29.5992 23.962 29.9572C24.077 29.9602 24.195 29.9622 24.311 29.9652Z" fill="#34A853"/>
<path d="M51.676 11.306V9.5V9C51.676 8.832 51.62 8.681 51.541 8.542C50.418 4.241 41.791 0 26.676 0C11.598 0 2.97896 4.22 1.82196 8.51C1.73696 8.657 1.67596 8.818 1.67596 9V9.5V11.306C4.51196 14.267 13.992 17 26.676 17C39.36 17 48.839 14.267 51.676 11.306Z" fill="#34A853"/>
<path d="M26.025 50.845C26.025 49.193 26.476 47.596 27.274 46.194C27.073 46.195 26.879 46.201 26.675 46.201C14.329 46.201 5.80899 43.911 1.67499 41V49.201C1.67499 49.363 1.71799 49.516 1.79199 49.652C2.97299 54.547 13.539 58.201 26.675 58.201C27.625 58.201 28.556 58.177 29.476 58.139C27.376 56.422 26.025 53.792 26.025 50.845Z" fill="#34A853"/>
</g>
<defs>
<clipPath id="clip0_1021_3913">
<rect width="58.201" height="58.201" fill="white"/>
</clipPath>
</defs>
</svg>
