<svg width="24" height="24" viewBox="0 0 24 24" fill="none" xmlns="http://www.w3.org/2000/svg">
<path d="M22.7656 20.3455L14.5458 12.0659L22.6867 4.03238C23.3961 3.33241 23.4036 2.19788 22.7036 1.48854C22.0039 0.779429 20.8691 0.771664 20.1598 1.47164L12.0685 9.50571L4.22053 1.55281C3.52055 0.843468 2.38603 0.83593 1.67669 1.53591C0.967576 2.23566 0.960039 3.37018 1.66002 4.07952L9.49556 12.0199L1.37925 20.0291C0.670362 20.7286 0.662371 21.8636 1.36235 22.5729C2.06232 23.2822 3.1973 23.2893 3.90619 22.5898L12.0223 14.5808L20.2047 22.8727C20.9046 23.582 22.0396 23.5891 22.7485 22.8896C23.4581 22.1894 23.4593 21.0484 22.7656 20.3455Z" fill="#0085FF"/>
</svg>
