<svg width="15" height="15" viewBox="0 0 15 15" fill="none" xmlns="http://www.w3.org/2000/svg">
<path d="M0 7.49972C0 3.52559 3.09098 0.273406 7 0.0161133V4.03516C5.30385 4.27777 4 5.73648 4 7.49972C4 9.43271 5.567 10.9998 7.5 10.9998C8.28618 10.9998 9.01181 10.7405 9.5961 10.3029L12.438 13.1449C11.1188 14.2998 9.39113 14.9998 7.5 14.9998C3.35786 14.9998 0 11.6419 0 7.49972Z" fill="#8290A0"/>
<path d="M13.1451 12.4381C14.3001 11.1188 15 9.39115 15 7.50004C15 6.46652 14.7909 5.48183 14.4128 4.58594L10.7552 6.21155C10.9132 6.61032 11 7.04504 11 7.50004C11 8.28619 10.7408 9.01182 10.3032 9.5961L13.1451 12.4381Z" fill="#8290A0"/>
<path d="M8 4.03516V0.0161133C10.5416 0.183401 12.7373 1.61675 13.9626 3.69142L10.2541 5.33962C9.71063 4.64767 8.91203 4.16561 8 4.03516Z" fill="#8290A0"/>
</svg>
