<svg width="28" height="28" viewBox="0 0 28 28" fill="none" xmlns="http://www.w3.org/2000/svg">
<path d="M12.9748 21.7827C13.1093 21.9172 13.2689 22.0239 13.4447 22.0966C13.6204 22.1694 13.8087 22.2069 13.9989 22.2069C14.1891 22.2069 14.3774 22.1694 14.5532 22.0966C14.7289 22.0239 14.8885 21.9172 15.023 21.7827L20.4848 16.3209C20.7564 16.0493 20.909 15.6809 20.909 15.2968C20.909 14.9127 20.7564 14.5444 20.4848 14.2728C20.2132 14.0012 19.8448 13.8486 19.4607 13.8486C19.0766 13.8486 18.7082 14.0012 18.4366 14.2728L15.4472 17.2622V1.44828C15.4472 1.06417 15.2946 0.695795 15.023 0.42419C14.7514 0.152586 14.383 0 13.9989 0C13.6148 0 13.2464 0.152586 12.9748 0.42419C12.7032 0.695795 12.5506 1.06417 12.5506 1.44828V17.2622L9.56122 14.2728C9.28961 14.0012 8.92124 13.8486 8.53713 13.8486C8.15303 13.8486 7.78466 14.0012 7.51305 14.2728C7.24145 14.5444 7.08887 14.9127 7.08887 15.2968C7.08887 15.6809 7.24145 16.0493 7.51305 16.3209L12.9748 21.7827Z" fill="#0085FF"/>
<path d="M26.5517 12.5518C26.1676 12.5518 25.7992 12.7043 25.5276 12.9759C25.256 13.2476 25.1034 13.6159 25.1034 14V25.1035H2.89655V14C2.89655 13.6159 2.74397 13.2476 2.47236 12.9759C2.20076 12.7043 1.83238 12.5518 1.44828 12.5518C1.06417 12.5518 0.695795 12.7043 0.42419 12.9759C0.152586 13.2476 0 13.6159 0 14V25.5862C0 26.2264 0.25431 26.8404 0.706984 27.293C1.15966 27.7457 1.77362 28 2.41379 28H25.5862C26.2264 28 26.8403 27.7457 27.293 27.293C27.7457 26.8404 28 26.2264 28 25.5862V14C28 13.6159 27.8474 13.2476 27.5758 12.9759C27.3042 12.7043 26.9358 12.5518 26.5517 12.5518Z" fill="#0085FF"/>
</svg>
