<svg width="47" height="68" viewBox="0 0 47 68" fill="none" xmlns="http://www.w3.org/2000/svg">
<path d="M0.350482 4.21858L0.344116 63.2769C0.343871 65.5966 2.0992 67.495 4.24477 67.4952L42.1802 67.5C44.3265 67.5003 46.0828 65.6019 46.0831 63.2814L46.0882 15.5418C46.0883 14.2465 45.6125 13.0042 44.7656 12.0883L34.9137 1.43421C34.0666 0.518257 32.9178 0.0035733 31.7198 0.00344096L4.25321 2.76759e-08C2.10691 -0.00026466 0.350727 1.89807 0.350482 4.21858Z" fill="url(#paint0_linear_225_3814)"/>
<path d="M34.3424 27.1621H12.0911C10.7263 27.1621 9.61969 28.3598 9.61969 29.8354V55.1885C9.61969 56.6641 10.7263 57.8605 12.0911 57.8605H34.3424C35.7073 57.8605 36.8138 56.6641 36.8138 55.1885V29.8354C36.8138 28.3598 35.7073 27.1621 34.3424 27.1621ZM32.2495 36.2274H25.9449C25.4522 36.2274 25.0528 35.7955 25.0528 35.2629V32.0968C25.0528 31.5641 25.4522 31.1323 25.9449 31.1323H32.2495C32.7422 31.1323 33.1416 31.5641 33.1416 32.0968V35.2629C33.1416 35.7955 32.7422 36.2274 32.2495 36.2274ZM25.9449 40.1977H32.2495C32.7422 40.1977 33.1416 40.6295 33.1416 41.1622V43.8606C33.1416 44.3932 32.7422 44.8251 32.2495 44.8251H25.9449C25.4522 44.8251 25.0528 44.3932 25.0528 43.8606V41.1622C25.0529 40.6295 25.4523 40.1977 25.9449 40.1977ZM20.4885 44.8249H14.1839C13.6912 44.8249 13.2918 44.3931 13.2918 43.8604V41.1621C13.2918 40.6294 13.6912 40.1976 14.1839 40.1976H20.4885C20.9812 40.1976 21.3806 40.6294 21.3806 41.1621V43.8604C21.3806 44.3931 20.9812 44.8249 20.4885 44.8249ZM21.3806 32.0969V35.263C21.3806 35.7957 20.9812 36.2275 20.4885 36.2275H14.1839C13.6912 36.2275 13.2918 35.7957 13.2918 35.263V32.0969C13.2918 31.5643 13.6912 31.1324 14.1839 31.1324H20.4885C20.9812 31.1324 21.3806 31.5643 21.3806 32.0969ZM14.1839 48.7953H20.4885C20.9812 48.7953 21.3806 49.2271 21.3806 49.7598V52.9258C21.3806 53.4585 20.9812 53.8904 20.4885 53.8904H14.1839C13.6912 53.8904 13.2918 53.4585 13.2918 52.9258V49.7598C13.2919 49.2271 13.6913 48.7953 14.1839 48.7953ZM25.0529 52.9257V49.7596C25.0529 49.227 25.4523 48.7951 25.945 48.7951H32.2496C32.7423 48.7951 33.1417 49.227 33.1417 49.7596V52.9257C33.1417 53.4584 32.7423 53.8902 32.2496 53.8902H25.9449C25.4523 53.8902 25.0529 53.4584 25.0529 52.9257Z" fill="#EBEFF0"/>
<path d="M34.9101 1.4329C34.3299 0.805592 33.6079 0.36674 32.8257 0.152344V13.9058L46.0862 28.2425V15.5389C46.0862 14.2436 45.6103 13.0015 44.7632 12.0855L34.9101 1.4329Z" fill="url(#paint1_linear_225_3814)"/>
<path d="M45.9524 14.3539C45.9668 14.4218 45.9802 14.4877 45.9923 14.5514H34.0394C33.1931 14.5514 32.5068 13.8096 32.5068 12.8945V0.0791016C32.6002 0.0971003 32.6984 0.118143 32.7996 0.142362C33.6906 0.355435 34.5031 0.850797 35.1484 1.54838L44.654 11.8255C45.2968 12.5205 45.7481 13.3964 45.9524 14.3539Z" fill="url(#paint2_linear_225_3814)"/>
<path d="M46.0863 59.1865V63.2785C46.0863 65.599 44.3302 67.4976 42.1839 67.4976H4.24849C2.1028 67.4976 0.347351 65.5995 0.347351 63.2798V59.1865H46.0863Z" fill="url(#paint3_linear_225_3814)"/>
<defs>
<linearGradient id="paint0_linear_225_3814" x1="11.2432" y1="26.3145" x2="43.2516" y2="55.9197" gradientUnits="userSpaceOnUse">
<stop stop-color="#28A265"/>
<stop offset="1" stop-color="#28895E"/>
</linearGradient>
<linearGradient id="paint1_linear_225_3814" x1="42.2028" y1="22.9943" x2="36.7899" y2="8.36475" gradientUnits="userSpaceOnUse">
<stop stop-color="#108372" stop-opacity="0"/>
<stop offset="1" stop-color="#108372"/>
</linearGradient>
<linearGradient id="paint2_linear_225_3814" x1="34.0219" y1="7.77449" x2="39.9225" y2="13.2322" gradientUnits="userSpaceOnUse">
<stop stop-color="#91D1B2"/>
<stop offset="1" stop-color="#28A265"/>
</linearGradient>
<linearGradient id="paint3_linear_225_3814" x1="23.2168" y1="61.3701" x2="23.2168" y2="67.9327" gradientUnits="userSpaceOnUse">
<stop stop-color="#108372" stop-opacity="0"/>
<stop offset="1" stop-color="#108372"/>
</linearGradient>
</defs>
</svg>
