<svg width="24" height="24" viewBox="0 0 24 24" fill="none" xmlns="http://www.w3.org/2000/svg">
<path d="M14.121 14.1208L19 18.9998L14.121 14.1208ZM12 11.9998L19 4.99978L12 11.9998ZM12 11.9998L9.12101 14.8788L12 11.9998ZM12 11.9998L9.12101 9.12078L12 11.9998ZM9.12101 14.8788C8.55835 14.3161 7.79522 14 6.99951 14C6.20379 14 5.44066 14.3161 4.87801 14.8788C4.31535 15.4414 3.99925 16.2046 3.99925 17.0003C3.99925 17.796 4.31535 18.5591 4.87801 19.1218C5.44066 19.6844 6.20379 20.0005 6.99951 20.0005C7.79522 20.0005 8.55835 19.6844 9.12101 19.1218C9.68366 18.5591 9.99976 17.796 9.99976 17.0003C9.99976 16.2046 9.68366 15.4414 9.12101 14.8788V14.8788ZM9.12101 9.12078C9.68366 8.55812 9.99976 7.79499 9.99976 6.99928C9.99976 6.20356 9.68366 5.44043 9.12101 4.87778C8.55835 4.31512 7.79522 3.99902 6.99951 3.99902C6.20379 3.99902 5.44066 4.31512 4.87801 4.87778C4.31535 5.44043 3.99925 6.20356 3.99925 6.99928C3.99925 7.79499 4.31535 8.55812 4.87801 9.12078C5.44066 9.68343 6.20379 9.99953 6.99951 9.99953C7.79522 9.99953 8.55835 9.68343 9.12101 9.12078V9.12078Z" stroke="#8290A0" stroke-width="2" stroke-linecap="round" stroke-linejoin="round"/>
</svg>
