<svg width="61" height="61" viewBox="0 0 61 61" fill="none" xmlns="http://www.w3.org/2000/svg">
<path d="M54.9 50.3248H8.48698V4.04435C8.48698 2.94587 7.59641 2.05518 6.49781 2.05518C5.39922 2.05518 4.50864 2.94575 4.50864 4.04435V50.3248H1.98917C0.890576 50.3248 0 51.2153 0 52.3139C0 53.4125 0.890576 54.3031 1.98917 54.3031H4.50876V56.9553C4.50876 58.0538 5.39933 58.9445 6.49793 58.9445C7.59653 58.9445 8.4871 58.0539 8.4871 56.9553V54.3031H54.9C55.9985 54.3031 56.8892 53.4125 56.8892 52.3139C56.8892 51.2153 55.9985 50.3248 54.9 50.3248Z" fill="#8290A0"/>
<path d="M56.1598 4.88477C53.4866 4.88477 51.3196 7.05181 51.3196 9.72497C51.3196 11.0156 51.8257 12.1874 52.6493 13.0552L45.1872 31.3061C44.4427 31.4613 43.7618 31.7883 43.1859 32.2426L31.2637 26.1988C31.2666 26.1299 31.2689 26.0611 31.2689 25.9914C31.2689 23.3182 29.1019 21.1512 26.4287 21.1512C23.7556 21.1512 21.5885 23.3182 21.5885 25.9914C21.5885 26.9765 21.8836 27.8925 22.3893 28.657L17.7423 35.922C14.8004 35.4943 12.2001 37.7758 12.2001 40.7107C12.2001 43.3839 14.3672 45.5509 17.0403 45.5509C19.7135 45.5509 21.8805 43.3839 21.8805 40.7107C21.8805 39.7345 21.5905 38.8264 21.0933 38.0659L25.7515 30.7832C27.1018 30.9723 28.4368 30.5935 29.4748 29.7519L41.3479 35.7709C41.1925 38.5659 43.4157 40.8839 46.18 40.8839C48.8531 40.8839 51.0202 38.7169 51.0202 36.0437C51.0202 34.4764 50.2746 33.084 49.1197 32.1994L56.3315 14.5607C58.9249 14.4702 61 12.3406 61 9.72497C61 7.0517 58.833 4.88477 56.1598 4.88477Z" fill="#8290A0"/>
</svg>
