<svg width="23" height="23" viewBox="0 0 23 23" fill="none" xmlns="http://www.w3.org/2000/svg">
<circle cx="11.5" cy="11.5" r="11.5" fill="#0085FF"/>
<path fill-rule="evenodd" clip-rule="evenodd" d="M13.8056 6.71974C13.9671 6.5526 14.1602 6.41928 14.3737 6.32756C14.5872 6.23585 14.8168 6.18757 15.0492 6.18555C15.2815 6.18353 15.512 6.22781 15.7271 6.3158C15.9421 6.4038 16.1375 6.53374 16.3018 6.69805C16.4661 6.86236 16.5961 7.05775 16.6841 7.27282C16.7721 7.48789 16.8163 7.71833 16.8143 7.95069C16.8123 8.18306 16.764 8.41269 16.6723 8.6262C16.5806 8.83971 16.4473 9.03281 16.2801 9.19424L13.6551 11.8192C13.327 12.1473 12.8819 12.3316 12.4179 12.3316C11.9538 12.3316 11.5088 12.1473 11.1806 11.8192C11.0156 11.6599 10.7946 11.5717 10.5652 11.5737C10.3357 11.5756 10.1163 11.6677 9.95404 11.8299C9.79181 11.9921 9.69979 12.2116 9.6978 12.441C9.6958 12.6704 9.784 12.8915 9.94339 13.0565C10.5997 13.7126 11.4898 14.0812 12.4179 14.0812C13.346 14.0812 14.236 13.7126 14.8924 13.0565L17.5174 10.4315C18.1549 9.77138 18.5077 8.88728 18.4997 7.96959C18.4918 7.0519 18.1237 6.17405 17.4747 5.52513C16.8258 4.8762 15.948 4.50811 15.0303 4.50013C14.1126 4.49216 13.2285 4.84494 12.5684 5.48249L11.2559 6.79499C11.1723 6.87571 11.1057 6.97226 11.0598 7.07901C11.0139 7.18577 10.9898 7.30058 10.9888 7.41677C10.9878 7.53295 11.0099 7.64817 11.0539 7.7557C11.0979 7.86324 11.1629 7.96093 11.245 8.04309C11.3272 8.12524 11.4249 8.19021 11.5324 8.23421C11.64 8.27821 11.7552 8.30035 11.8714 8.29934C11.9875 8.29833 12.1024 8.27419 12.2091 8.22833C12.3159 8.18247 12.4124 8.11581 12.4931 8.03224L13.8056 6.71974ZM9.43064 11.0947C9.75881 10.7667 10.2038 10.5824 10.6679 10.5824C11.1319 10.5824 11.577 10.7667 11.9051 11.0947C11.9859 11.1783 12.0824 11.245 12.1892 11.2908C12.2959 11.3367 12.4107 11.3608 12.5269 11.3618C12.6431 11.3628 12.7583 11.3407 12.8658 11.2967C12.9734 11.2527 13.0711 11.1877 13.1532 11.1056C13.2354 11.0234 13.3004 10.9257 13.3444 10.8182C13.3883 10.7107 13.4105 10.5954 13.4095 10.4793C13.4085 10.3631 13.3843 10.2483 13.3385 10.1415C13.2926 10.0348 13.226 9.93821 13.1424 9.85749C12.486 9.20134 11.596 8.83274 10.6679 8.83274C9.73981 8.83274 8.84973 9.20134 8.19339 9.85749L5.56839 12.4825C5.2341 12.8054 4.96746 13.1916 4.78403 13.6186C4.6006 14.0456 4.50405 14.5049 4.50001 14.9696C4.49597 15.4343 4.58453 15.8952 4.76051 16.3253C4.93649 16.7555 5.19638 17.1463 5.525 17.4749C5.85363 17.8035 6.24441 18.0634 6.67455 18.2394C7.10468 18.4154 7.56556 18.5039 8.03029 18.4999C8.49502 18.4958 8.95429 18.3993 9.3813 18.2158C9.80832 18.0324 10.1945 17.7658 10.5174 17.4315L11.8299 16.119C11.9135 16.0383 11.9801 15.9417 12.026 15.835C12.0718 15.7282 12.096 15.6134 12.097 15.4972C12.098 15.381 12.0758 15.2658 12.0319 15.1583C11.9879 15.0507 11.9229 14.9531 11.8407 14.8709C11.7586 14.7887 11.6609 14.7238 11.5533 14.6798C11.4458 14.6358 11.3306 14.6136 11.2144 14.6146C11.0982 14.6157 10.9834 14.6398 10.8767 14.6857C10.7699 14.7315 10.6734 14.7982 10.5926 14.8817L9.28014 16.1942C9.1187 16.3614 8.9256 16.4947 8.71209 16.5864C8.49859 16.6781 8.26895 16.7264 8.03659 16.7284C7.80422 16.7304 7.57379 16.6862 7.35872 16.5982C7.14365 16.5102 6.94826 16.3802 6.78395 16.2159C6.61963 16.0516 6.48969 15.8562 6.4017 15.6412C6.31371 15.4261 6.26943 15.1957 6.27145 14.9633C6.27347 14.7309 6.32174 14.5013 6.41346 14.2878C6.50517 14.0743 6.63849 13.8812 6.80564 13.7197L9.43064 11.0947Z" fill="white"/>
</svg>
