<svg width="139" height="139" viewBox="0 0 139 139" fill="none" xmlns="http://www.w3.org/2000/svg">
<path d="M91.2188 43.4375H47.7812C45.3835 43.4375 43.4375 45.3835 43.4375 47.7812V134.656C43.4375 137.054 45.3835 139 47.7812 139H91.2188C93.6165 139 95.5625 137.054 95.5625 134.656V47.7812C95.5625 45.3835 93.6165 43.4375 91.2188 43.4375Z" fill="#FFC107"/>
<path d="M47.7812 86.875H4.34375C1.946 86.875 0 88.821 0 91.2188V134.656C0 137.054 1.946 139 4.34375 139H47.7812C50.179 139 52.125 137.054 52.125 134.656V91.2188C52.125 88.821 50.179 86.875 47.7812 86.875Z" fill="#FFC107"/>
<path d="M134.656 0H91.2188C88.821 0 86.875 1.946 86.875 4.34375V134.656C86.875 137.054 88.821 139 91.2188 139H134.656C137.054 139 139 137.054 139 134.656V4.34375C139 1.946 137.054 0 134.656 0Z" fill="#FFA000"/>
</svg>
