<svg width="23" height="18" viewBox="0 0 23 18" fill="none" xmlns="http://www.w3.org/2000/svg">
<path d="M10.1581 12.1784L10.0486 11.8721L9.87242 12.145C9.63106 12.518 9.3364 12.8512 8.97166 13.1631C7.96502 14.0249 6.66813 14.2192 5.82852 14.2423V13.3451C5.82852 13.0268 5.70941 12.7397 5.48484 12.5152C5.26004 12.2904 4.97322 12.1715 4.65486 12.1715H1.17366C0.855275 12.1715 0.568263 12.2906 0.343689 12.5152C0.11889 12.74 0 13.0268 0 13.3451V16.8259C0 17.1443 0.119114 17.4313 0.343689 17.6559C0.568487 17.8807 0.855304 17.9996 1.17366 17.9996H4.65446C4.97285 17.9996 5.25986 17.8805 5.48443 17.6559C5.70923 17.4311 5.82812 17.1443 5.82812 16.8259V15.8515C6.8386 15.8309 8.58705 15.5983 10.0041 14.3914C10.2905 14.1478 10.5372 13.9042 10.7593 13.6474L10.8366 13.5577L10.7734 13.4576C10.528 13.0651 10.3211 12.6349 10.1582 12.1785L10.1581 12.1784ZM4.47571 16.647H1.35253V13.5238H4.47571V16.647Z" fill="#1C92FF"/>
<path d="M22.5075 0.344666C22.2827 0.119867 21.9958 0.000976562 21.6775 0.000976562H18.1965C17.8781 0.000976562 17.5911 0.120091 17.3665 0.344666C17.1417 0.569464 17.0229 0.856281 17.0229 1.17447V2.14958C15.9325 2.17107 14.2373 2.4243 12.8469 3.60874C12.5612 3.85234 12.3145 4.09528 12.0919 4.35256L12.0146 4.44235L12.0778 4.54243C12.3241 4.93493 12.531 5.36547 12.6935 5.82093L12.803 6.12723L12.9792 5.85429C13.2203 5.48172 13.515 5.14876 13.88 4.83665C14.8907 3.97126 16.1777 3.77826 17.0226 3.75723V4.65576C17.0226 4.97415 17.1418 5.26116 17.3668 5.48619C17.592 5.71099 17.8791 5.82966 18.1966 5.82966H21.6774C21.9949 5.82966 22.2817 5.71099 22.5074 5.48597C22.7322 5.26117 22.851 4.97435 22.851 4.65599L22.8508 1.17457C22.8515 0.856402 22.7324 0.569567 22.5076 0.344763L22.5075 0.344666ZM21.4984 4.47632H18.3752V1.35359H21.4984V4.47632Z" fill="#1C92FF"/>
<path d="M21.6777 12.1713H18.1969C17.8785 12.1713 17.5915 12.2904 17.3669 12.515C17.1421 12.7398 17.0232 13.0266 17.0232 13.345V14.2435C16.7597 14.2296 16.2734 14.186 16.1083 14.1571C15.8766 14.1163 15.6466 14.0622 15.4221 13.9925C14.7143 13.7729 14.0827 13.3909 13.559 12.8672C13.0062 12.3144 12.6217 11.6398 12.4281 10.8823C12.1744 9.88884 12.2776 8.87029 12.1719 7.8605C11.9928 6.15172 11.32 4.71359 10.0057 3.60774C9.16561 2.90134 8.13926 2.4656 7.06453 2.27015C6.66084 2.19671 6.24436 2.15775 5.82903 2.14969V1.17349C5.82903 0.855774 5.70991 0.568493 5.48534 0.343689C5.26054 0.11889 4.97372 0 4.65536 0L1.1744 0.000223901C0.856008 0.000223901 0.568997 0.119338 0.344422 0.343912C0.119623 0.568711 0.000732422 0.855528 0.000732422 1.17372V4.65468C0.000732422 4.97307 0.119847 5.26008 0.344869 5.48512C0.570114 5.70991 0.857154 5.82858 1.17467 5.82858H4.65547C4.97296 5.82858 5.25978 5.70992 5.48544 5.48489C5.71024 5.26009 5.82913 4.97328 5.82913 4.65492V3.75862C6.84339 3.78594 7.86125 4.03917 8.7 4.62603C10.1211 5.62017 10.5975 7.19173 10.6233 8.85598C10.6497 10.5711 10.9337 12.2071 11.9994 13.5263C13.1789 14.9862 14.924 15.7465 16.7759 15.8426C16.8581 15.8468 16.9409 15.8441 17.0231 15.8461V16.8257C17.0231 17.1441 17.1422 17.4311 17.3668 17.6557C17.5916 17.8805 17.8784 17.9994 18.1968 17.9994H21.6776C21.996 17.9994 22.283 17.8803 22.5075 17.6557C22.7323 17.4309 22.8512 17.1441 22.8512 16.8257L22.8515 13.3452C22.8515 13.0268 22.7323 12.7398 22.5078 12.5152C22.283 12.2904 21.9961 12.1713 21.6778 12.1713L21.6777 12.1713ZM4.4763 4.47628H1.35312V1.35355H4.4763V4.47628ZM21.4988 16.6473H18.3756V13.5242H21.4988V16.6473Z" fill="#1C92FF"/>
</svg>
