<svg width="30" height="30" viewBox="0 0 30 30" fill="none" xmlns="http://www.w3.org/2000/svg">
<path d="M12 4.5C12 4.10218 12.158 3.72064 12.4393 3.43934C12.7206 3.15804 13.1022 3 13.5 3H16.5C16.8978 3 17.2794 3.15804 17.5607 3.43934C17.842 3.72064 18 4.10218 18 4.5C18 4.89782 17.842 5.27936 17.5607 5.56066C17.2794 5.84196 16.8978 6 16.5 6H13.5C13.1022 6 12.7206 5.84196 12.4393 5.56066C12.158 5.27936 12 4.89782 12 4.5Z" fill="#8290A0"/>
<path d="M9 4.5C8.20435 4.5 7.44129 4.81607 6.87868 5.37868C6.31607 5.94129 6 6.70435 6 7.5V24C6 24.7956 6.31607 25.5587 6.87868 26.1213C7.44129 26.6839 8.20435 27 9 27H21C21.7956 27 22.5587 26.6839 23.1213 26.1213C23.6839 25.5587 24 24.7956 24 24V7.5C24 6.70435 23.6839 5.94129 23.1213 5.37868C22.5587 4.81607 21.7956 4.5 21 4.5C21 5.69347 20.5259 6.83807 19.682 7.68198C18.8381 8.52589 17.6935 9 16.5 9H13.5C12.3065 9 11.1619 8.52589 10.318 7.68198C9.47411 6.83807 9 5.69347 9 4.5V4.5Z" fill="#8290A0"/>
</svg>
