<svg width="39" height="39" viewBox="0 0 39 39" fill="none" xmlns="http://www.w3.org/2000/svg">
<circle cx="19.5" cy="19.5" r="19.5" fill="#C4C4C4"/>
<path d="M23.2143 14.7778C23.2143 15.7797 22.823 16.7406 22.1264 17.4491C21.4298 18.1575 20.4851 18.5556 19.5 18.5556C18.5149 18.5556 17.5702 18.1575 16.8736 17.4491C16.177 16.7406 15.7857 15.7797 15.7857 14.7778C15.7857 13.7758 16.177 12.815 16.8736 12.1065C17.5702 11.398 18.5149 11 19.5 11C20.4851 11 21.4298 11.398 22.1264 12.1065C22.823 12.815 23.2143 13.7758 23.2143 14.7778V14.7778ZM19.5 21.3889C17.7761 21.3889 16.1228 22.0854 14.9038 23.3252C13.6848 24.5651 13 26.2466 13 28H26C26 26.2466 25.3152 24.5651 24.0962 23.3252C22.8772 22.0854 21.2239 21.3889 19.5 21.3889V21.3889Z" stroke="#F7F7F7" stroke-width="2" stroke-linecap="round" stroke-linejoin="round"/>
</svg>
