<svg width="20" height="20" viewBox="0 0 20 20" fill="none" xmlns="http://www.w3.org/2000/svg">
    <path d="M18.4962 3.62668C19.3721 3.93448 20 4.76891 20 5.75V15.75C20 18.0972 18.0972 20 15.75 20H5.75C4.76891 20 3.93448 19.3721 3.62668 18.4962L5.72396 18.4996L15.75 18.5C17.2688 18.5 18.5 17.2688 18.5 15.75V5.75L18.496 5.69902L18.4962 3.62668ZM15.2468 0C16.4895 0 17.4968 1.00736 17.4968 2.25V15.2468C17.4968 16.4895 16.4895 17.4968 15.2468 17.4968H2.25C1.00736 17.4968 0 16.4895 0 15.2468V2.25C0 1.00736 1.00736 0 2.25 0H15.2468ZM8.75 4.75C8.3703 4.75 8.05651 5.03215 8.00685 5.39823L8 5.5V8H5.5C5.08579 8 4.75 8.33579 4.75 8.75C4.75 9.1297 5.03215 9.44349 5.39823 9.49315L5.5 9.5H8V12C8 12.4142 8.33579 12.75 8.75 12.75C9.1297 12.75 9.44349 12.4678 9.49315 12.1018L9.5 12V9.5H12C12.4142 9.5 12.75 9.16421 12.75 8.75C12.75 8.3703 12.4678 8.05651 12.1018 8.00685L12 8H9.5V5.5C9.5 5.08579 9.16421 4.75 8.75 4.75Z" fill="#8290A0"/>
    </svg>
    