<svg width="20" height="20" viewBox="0 0 20 20" fill="none" xmlns="http://www.w3.org/2000/svg">
    <path d="M11.7057 8.76301H19.5312C19.7901 8.76301 20 8.55312 20 8.29426V0.46875C20 0.209883 19.7901 0 19.5312 0H17.6562C17.3974 0 17.1875 0.209883 17.1875 0.46875V3.52C15.3995 1.53434 12.8023 0.291797 9.91504 0.312773C4.56715 0.351602 0.288164 4.67305 0.299532 10.0211C0.310898 15.3616 4.64375 19.6875 9.98699 19.6875C12.4905 19.6875 14.772 18.7378 16.4913 17.1791C16.6905 16.9986 16.6996 16.6887 16.5095 16.4986L15.1827 15.1718C15.0079 14.997 14.7271 14.9875 14.542 15.1513C13.3297 16.2241 11.7352 16.875 9.98699 16.875C6.18746 16.875 3.11199 13.8002 3.11199 10C3.11199 6.20051 6.18684 3.125 9.98699 3.125C12.272 3.125 14.2948 4.23734 15.5446 5.95051H11.7057C11.4469 5.95051 11.237 6.16039 11.237 6.41926V8.29426C11.237 8.55312 11.4469 8.76301 11.7057 8.76301Z" fill="#8290A0"/>
    </svg>
    