<svg width="20" height="20" viewBox="0 0 20 20" fill="none" xmlns="http://www.w3.org/2000/svg">
<path d="M11 3C10.7348 3 10.4804 3.10536 10.2929 3.29289C10.1054 3.48043 10 3.73478 10 4C10 4.26522 10.1054 4.51957 10.2929 4.70711C10.4804 4.89464 10.7348 5 11 5H13.586L7.29301 11.293C7.19749 11.3852 7.12131 11.4956 7.0689 11.6176C7.01649 11.7396 6.98891 11.8708 6.98775 12.0036C6.9866 12.1364 7.0119 12.2681 7.06218 12.391C7.11246 12.5139 7.18672 12.6255 7.28061 12.7194C7.3745 12.8133 7.48615 12.8875 7.60905 12.9378C7.73195 12.9881 7.86363 13.0134 7.99641 13.0123C8.12919 13.0111 8.26041 12.9835 8.38241 12.9311C8.50441 12.8787 8.61476 12.8025 8.707 12.707L15 6.414V9C15 9.26522 15.1054 9.51957 15.2929 9.70711C15.4804 9.89464 15.7348 10 16 10C16.2652 10 16.5196 9.89464 16.7071 9.70711C16.8946 9.51957 17 9.26522 17 9V4C17 3.73478 16.8946 3.48043 16.7071 3.29289C16.5196 3.10536 16.2652 3 16 3H11Z" fill="#005EFF"/>
<path d="M5 5C4.46957 5 3.96086 5.21071 3.58579 5.58579C3.21071 5.96086 3 6.46957 3 7V15C3 15.5304 3.21071 16.0391 3.58579 16.4142C3.96086 16.7893 4.46957 17 5 17H13C13.5304 17 14.0391 16.7893 14.4142 16.4142C14.7893 16.0391 15 15.5304 15 15V12C15 11.7348 14.8946 11.4804 14.7071 11.2929C14.5196 11.1054 14.2652 11 14 11C13.7348 11 13.4804 11.1054 13.2929 11.2929C13.1054 11.4804 13 11.7348 13 12V15H5V7H8C8.26522 7 8.51957 6.89464 8.70711 6.70711C8.89464 6.51957 9 6.26522 9 6C9 5.73478 8.89464 5.48043 8.70711 5.29289C8.51957 5.10536 8.26522 5 8 5H5Z" fill="#005EFF"/>
</svg>
