<svg width="23" height="23" viewBox="0 0 23 23" fill="none" xmlns="http://www.w3.org/2000/svg">
    <path d="M21.3079 3.83327C21.3079 5.55347 19.9136 6.94798 18.1934 6.94798C16.4732 6.94798 15.0789 5.55347 15.0789 3.83327C15.0789 2.11326 16.4732 0.71875 18.1934 0.71875C19.9136 0.71875 21.3079 2.11326 21.3079 3.83327Z" fill="#8290A0"/>
    <path d="M18.1934 7.66673C16.0792 7.66673 14.3601 5.94741 14.3601 3.83327C14.3601 1.71931 16.0792 0 18.1934 0C20.3075 0 22.0267 1.71931 22.0267 3.83327C22.0267 5.94741 20.3075 7.66673 18.1934 7.66673ZM18.1934 1.4375C16.8719 1.4375 15.7976 2.51282 15.7976 3.83327C15.7976 5.15391 16.8719 6.22923 18.1934 6.22923C19.5149 6.22923 20.5892 5.15391 20.5892 3.83327C20.5892 2.51282 19.5149 1.4375 18.1934 1.4375Z" fill="#8290A0"/>
    <path d="M21.3079 19.1667C21.3079 20.8867 19.9136 22.2812 18.1934 22.2812C16.4732 22.2812 15.0789 20.8867 15.0789 19.1667C15.0789 17.4465 16.4732 16.052 18.1934 16.052C19.9136 16.052 21.3079 17.4465 21.3079 19.1667Z" fill="#8290A0"/>
    <path d="M18.1934 23C16.0792 23 14.3601 21.2807 14.3601 19.1667C14.3601 17.0526 16.0792 15.3333 18.1934 15.3333C20.3075 15.3333 22.0267 17.0526 22.0267 19.1667C22.0267 21.2807 20.3075 23 18.1934 23ZM18.1934 16.7708C16.8719 16.7708 15.7976 17.8461 15.7976 19.1667C15.7976 20.4872 16.8719 21.5625 18.1934 21.5625C19.5149 21.5625 20.5892 20.4872 20.5892 19.1667C20.5892 17.8461 19.5149 16.7708 18.1934 16.7708Z" fill="#8290A0"/>
    <path d="M7.89133 11.5C7.89133 13.2202 6.49683 14.6145 4.77663 14.6145C3.05662 14.6145 1.66211 13.2202 1.66211 11.5C1.66211 9.77983 3.05662 8.3855 4.77663 8.3855C6.49683 8.3855 7.89133 9.77983 7.89133 11.5Z" fill="#8290A0"/>
    <path d="M4.77663 15.3333C2.66267 15.3333 0.943359 13.6142 0.943359 11.5C0.943359 9.38589 2.66267 7.66675 4.77663 7.66675C6.89077 7.66675 8.61008 9.38589 8.61008 11.5C8.61008 13.6142 6.89077 15.3333 4.77663 15.3333ZM4.77663 9.10425C3.45512 9.10425 2.38086 10.1794 2.38086 11.5C2.38086 12.8207 3.45512 13.8958 4.77663 13.8958C6.09832 13.8958 7.17258 12.8207 7.17258 11.5C7.17258 10.1794 6.09832 9.10425 4.77663 9.10425Z" fill="#8290A0"/>
    <path d="M7.03937 11.04C6.70579 11.04 6.38186 10.8664 6.20551 10.556C5.94387 10.0969 6.10496 9.51139 6.564 9.2487L15.4563 4.17919C15.9153 3.91563 16.5009 4.07672 16.7636 4.53752C17.0252 4.99656 16.8641 5.58213 16.4051 5.84481L7.51263 10.9143C7.36312 10.9996 7.20028 11.04 7.03937 11.04Z" fill="#8290A0"/>
    <path d="M15.9308 18.9463C15.7697 18.9463 15.6068 18.9059 15.4573 18.8206L6.56491 13.7511C6.10586 13.4895 5.94495 12.9039 6.20659 12.4438C6.46717 11.9839 7.05361 11.8219 7.51371 12.0855L16.4061 17.155C16.8652 17.4166 17.0261 18.0022 16.7645 18.4623C16.5872 18.7727 16.2633 18.9463 15.9308 18.9463Z" fill="#8290A0"/>
    </svg>
    