<svg width="35" height="35" viewBox="0 0 35 35" fill="none" xmlns="http://www.w3.org/2000/svg">
<path d="M32.4251 5.83324C32.4251 8.45093 30.3033 10.573 27.6856 10.573C25.0679 10.573 22.9461 8.45093 22.9461 5.83324C22.9461 3.21583 25.0679 1.09375 27.6856 1.09375C30.3033 1.09375 32.4251 3.21583 32.4251 5.83324Z" fill="#0085FF"/>
<path d="M27.6856 11.6668C24.4685 11.6668 21.8524 9.05041 21.8524 5.83324C21.8524 2.61635 24.4685 0 27.6856 0C30.9028 0 33.5189 2.61635 33.5189 5.83324C33.5189 9.05041 30.9028 11.6668 27.6856 11.6668ZM27.6856 2.1875C25.6746 2.1875 24.0399 3.82385 24.0399 5.83324C24.0399 7.8429 25.6746 9.47926 27.6856 9.47926C29.6966 9.47926 31.3314 7.8429 31.3314 5.83324C31.3314 3.82385 29.6966 2.1875 27.6856 2.1875Z" fill="#0085FF"/>
<path d="M32.4251 29.1665C32.4251 31.7839 30.3033 33.906 27.6856 33.906C25.0679 33.906 22.9461 31.7839 22.9461 29.1665C22.9461 26.5488 25.0679 24.4268 27.6856 24.4268C30.3033 24.4268 32.4251 26.5488 32.4251 29.1665Z" fill="#0085FF"/>
<path d="M27.6856 34.9998C24.4685 34.9998 21.8524 32.3834 21.8524 29.1665C21.8524 25.9494 24.4685 23.333 27.6856 23.333C30.9028 23.333 33.5189 25.9494 33.5189 29.1665C33.5189 32.3834 30.9028 34.9998 27.6856 34.9998ZM27.6856 25.5205C25.6746 25.5205 24.0399 27.1569 24.0399 29.1665C24.0399 31.1759 25.6746 32.8123 27.6856 32.8123C29.6966 32.8123 31.3314 31.1759 31.3314 29.1665C31.3314 27.1569 29.6966 25.5205 27.6856 25.5205Z" fill="#0085FF"/>
<path d="M12.0086 17.5002C12.0086 20.1179 9.88647 22.2397 7.26879 22.2397C4.65137 22.2397 2.5293 20.1179 2.5293 17.5002C2.5293 14.8826 4.65137 12.7607 7.26879 12.7607C9.88647 12.7607 12.0086 14.8826 12.0086 17.5002Z" fill="#0085FF"/>
<path d="M7.26879 23.3335C4.0519 23.3335 1.43555 20.7174 1.43555 17.5002C1.43555 14.2831 4.0519 11.667 7.26879 11.667C10.486 11.667 13.1023 14.2831 13.1023 17.5002C13.1023 20.7174 10.486 23.3335 7.26879 23.3335ZM7.26879 13.8545C5.2578 13.8545 3.62305 15.4906 3.62305 17.5002C3.62305 19.5099 5.2578 21.146 7.26879 21.146C9.28005 21.146 10.9148 19.5099 10.9148 17.5002C10.9148 15.4906 9.28005 13.8545 7.26879 13.8545Z" fill="#0085FF"/>
<path d="M10.712 16.8001C10.2044 16.8001 9.71146 16.536 9.4431 16.0636C9.04496 15.3651 9.29009 14.474 9.98864 14.0743L23.5203 6.3598C24.2189 5.95873 25.1099 6.20386 25.5097 6.90508C25.9078 7.60362 25.6627 8.4947 24.9642 8.89444L11.4322 16.6089C11.2047 16.7387 10.9569 16.8001 10.712 16.8001Z" fill="#0085FF"/>
<path d="M24.2424 28.8316C23.9973 28.8316 23.7495 28.7701 23.522 28.6404L9.99004 20.9259C9.29149 20.5278 9.04663 19.6367 9.44477 18.9365C9.8413 18.2366 10.7337 17.9902 11.4339 18.3913L24.9658 26.1057C25.6644 26.5039 25.9092 27.3949 25.5111 28.0951C25.2414 28.5675 24.7485 28.8316 24.2424 28.8316Z" fill="#0085FF"/>
</svg>
