<svg width="23" height="23" viewBox="0 0 23 23" fill="none" xmlns="http://www.w3.org/2000/svg">
<circle cx="11.5" cy="11.5" r="11.5" fill="#0085FF"/>
<path d="M10.8 9.8C11.4365 9.8 12.047 9.54714 12.4971 9.09706C12.9471 8.64697 13.2 8.03652 13.2 7.4C13.2 6.76348 12.9471 6.15303 12.4971 5.70294C12.047 5.25286 11.4365 5 10.8 5C10.1635 5 9.55303 5.25286 9.10294 5.70294C8.65286 6.15303 8.4 6.76348 8.4 7.4C8.4 8.03652 8.65286 8.64697 9.10294 9.09706C9.55303 9.54714 10.1635 9.8 10.8 9.8ZM10.8 11.4C12.073 11.4 13.2939 11.9057 14.1941 12.8059C15.0943 13.7061 15.6 14.927 15.6 16.2H6C6 14.927 6.50571 13.7061 7.40589 12.8059C8.30606 11.9057 9.52696 11.4 10.8 11.4ZM17.2 8.2C17.2 7.98783 17.1157 7.78434 16.9657 7.63432C16.8157 7.48429 16.6122 7.4 16.4 7.4C16.1878 7.4 15.9843 7.48429 15.8343 7.63432C15.6843 7.78434 15.6 7.98783 15.6 8.2V9H14.8C14.5878 9 14.3843 9.08429 14.2343 9.23431C14.0843 9.38434 14 9.58783 14 9.8C14 10.0122 14.0843 10.2157 14.2343 10.3657C14.3843 10.5157 14.5878 10.6 14.8 10.6H15.6V11.4C15.6 11.6122 15.6843 11.8157 15.8343 11.9657C15.9843 12.1157 16.1878 12.2 16.4 12.2C16.6122 12.2 16.8157 12.1157 16.9657 11.9657C17.1157 11.8157 17.2 11.6122 17.2 11.4V10.6H18C18.2122 10.6 18.4157 10.5157 18.5657 10.3657C18.7157 10.2157 18.8 10.0122 18.8 9.8C18.8 9.58783 18.7157 9.38434 18.5657 9.23431C18.4157 9.08429 18.2122 9 18 9H17.2V8.2Z" fill="white"/>
</svg>
