<svg width="30" height="29" viewBox="0 0 30 29" fill="none" xmlns="http://www.w3.org/2000/svg">
<path fill-rule="evenodd" clip-rule="evenodd" d="M7.5 5.7998C6.30653 5.7998 5.16193 6.25811 4.31802 7.07389C3.47411 7.88967 3 8.99611 3 10.1498V18.8498C3 20.0035 3.47411 21.1099 4.31802 21.9257C5.16193 22.7415 6.30653 23.1998 7.5 23.1998H22.5C23.6935 23.1998 24.8381 22.7415 25.682 21.9257C26.5259 21.1099 27 20.0035 27 18.8498V10.1498C27 8.99611 26.5259 7.88967 25.682 7.07389C24.8381 6.25811 23.6935 5.7998 22.5 5.7998H7.5ZM6 18.8498V17.3998H13.5V20.2998H7.5C7.10218 20.2998 6.72064 20.147 6.43934 19.8751C6.15804 19.6032 6 19.2344 6 18.8498ZM16.5 20.2998H22.5C22.8978 20.2998 23.2794 20.147 23.5607 19.8751C23.842 19.6032 24 19.2344 24 18.8498V17.3998H16.5V20.2998ZM16.5 14.4998H24V11.5998H16.5V14.4998ZM13.5 11.5998H6V14.4998H13.5V11.5998Z" fill="#8290A0"/>
</svg>
