<svg width="26" height="26" viewBox="0 0 26 26" fill="none" xmlns="http://www.w3.org/2000/svg">
<path d="M13 8.66634C14.1916 8.66634 15.1666 7.69134 15.1666 6.49967C15.1666 5.30801 14.1916 4.33301 13 4.33301C11.8083 4.33301 10.8333 5.30801 10.8333 6.49967C10.8333 7.69134 11.8083 8.66634 13 8.66634ZM13 10.833C11.8083 10.833 10.8333 11.808 10.8333 12.9997C10.8333 14.1913 11.8083 15.1663 13 15.1663C14.1916 15.1663 15.1666 14.1913 15.1666 12.9997C15.1666 11.808 14.1916 10.833 13 10.833ZM13 17.333C11.8083 17.333 10.8333 18.308 10.8333 19.4997C10.8333 20.6913 11.8083 21.6663 13 21.6663C14.1916 21.6663 15.1666 20.6913 15.1666 19.4997C15.1666 18.308 14.1916 17.333 13 17.333Z" fill="#969696"/>
</svg>
