<svg width="21" height="22" viewBox="0 0 21 22" fill="none" xmlns="http://www.w3.org/2000/svg">
<path d="M10.0444 14.1461C9.12778 14.1399 8.37283 14.8988 8.36675 15.8325C8.36068 16.7663 9.10569 17.5353 10.0223 17.5415C10.939 17.5477 11.6939 16.7888 11.7 15.855C11.7061 14.9213 10.9611 14.1523 10.0444 14.1461ZM10.0555 12.4484C10.9721 12.4546 11.7271 11.6957 11.7331 10.762C11.7392 9.82827 10.9942 9.05925 10.0776 9.05306C9.16092 9.04687 8.40596 9.80576 8.39989 10.7395C8.39381 11.6732 9.13883 12.4422 10.0555 12.4484ZM10.0886 7.35537C11.0053 7.36156 11.7602 6.60267 11.7663 5.66894C11.7724 4.73521 11.0273 3.96619 10.1107 3.96C9.19406 3.95381 8.4391 4.71271 8.43303 5.64644C8.42695 6.58016 9.17196 7.34918 10.0886 7.35537Z" fill="#8290A0"/>
</svg>
