<svg width="10" height="9" viewBox="0 0 10 9" fill="none" xmlns="http://www.w3.org/2000/svg">
    <path fill-rule="evenodd" clip-rule="evenodd" d="M6.81822 4.08678C7.57277 4.08678 8.17731 3.27679 8.17731 2.27337C8.17731 1.26995 7.57277 0.459961 6.81822 0.459961C6.06368 0.459961 5.45459 1.26995 5.45459 2.27337C5.45459 3.27679 6.06368 4.08678 6.81822 4.08678ZM3.18167 4.08678C3.93621 4.08678 4.54076 3.27679 4.54076 2.27337C4.54076 1.26995 3.93621 0.459961 3.18167 0.459961C2.42712 0.459961 1.81803 1.26995 1.81803 2.27337C1.81803 3.27679 2.42712 4.08678 3.18167 4.08678ZM3.18181 5.29515C2.12272 5.29515 0 6.00237 0 7.41077V8.31746C0 8.64991 0.204545 8.92192 0.454545 8.92192H5.90908C6.15908 8.92192 6.36362 8.64991 6.36362 8.31746V7.41077C6.36362 6.00237 4.2409 5.29515 3.18181 5.29515ZM6.81786 5.29515C6.68604 5.29515 6.53604 5.30724 6.37695 5.32538C6.38604 5.33142 6.39059 5.34351 6.39513 5.34955C6.91332 5.85126 7.27241 6.52221 7.27241 7.41077V8.31746C7.27241 8.52902 7.24059 8.73454 7.19059 8.92192H9.54513C9.79513 8.92192 9.99968 8.64991 9.99968 8.31746V7.41077C9.99968 6.00237 7.87695 5.29515 6.81786 5.29515Z" fill="#FF7F0D"/>
    </svg>
    