<svg width="221" height="127" viewBox="0 0 221 127" fill="none" xmlns="http://www.w3.org/2000/svg">
<path d="M219.444 54.2932C219.022 53.7325 208.901 40.4092 190.512 27.0791C183.066 21.682 175.319 17.0636 167.358 13.2455L169.643 14.3661C169.643 14.3661 171.539 16.8348 168.5 13.8058C149.364 39.3248 148.771 38.2043 169.643 14.3661L167.358 13.2455C153.92 8.70499 124.431 0 110.502 0C82.5967 0 54.9292 9.36355 30.4904 27.0784C12.1005 40.4099 1.97766 53.7333 1.55649 54.2932C-0.51883 57.0507 -0.51883 60.8429 1.55649 63.6005C1.97766 64.1612 12.1005 77.4846 30.4904 90.8154C37.936 96.2125 45.6836 100.83 53.6434 104.648L68.5 112.537H65.6847C62.6457 115.566 99.0326 85.3787 47.2001 127C89.7609 92.8239 108.778 77.3429 65.6847 112.537C65.6847 112.537 86.7123 88.1319 64.6866 110.085L65.6847 112.537C79.1248 117.078 96.5718 117.893 110.502 117.893C138.407 117.893 166.075 108.529 190.512 90.8139C208.901 77.4831 219.022 64.1597 219.444 63.5997C221.519 60.8437 221.519 57.0507 219.444 54.2932ZM154.079 58.9472C154.079 82.8972 134.53 102.382 110.502 102.382C101.292 102.382 92.7478 99.5122 85.7018 94.635L103.546 76.8497C105.703 77.6826 108.048 78.1446 110.502 78.1446C121.139 78.1446 129.761 69.5509 129.761 58.9479C129.761 56.5019 129.298 54.1664 128.462 52.0148L146.306 34.2295C151.2 41.2517 154.079 49.7675 154.079 58.9472ZM66.9242 58.9472C66.9242 34.9972 86.4727 15.5128 110.502 15.5128C119.711 15.5128 139.261 29.3508 146.306 34.2295L128.462 52.0148C137.545 62.3217 122.355 36.1453 110.502 39.7505C99.8645 39.7505 90.7304 49.6467 90.7304 60.2496C90.7304 62.6949 94.0789 73.1943 103.546 76.8497L85.7018 94.635C80.8071 87.6128 66.9242 68.1261 66.9242 58.9472ZM17.9723 58.9472C22.204 54.2873 29.718 46.7638 40.0582 39.3248C46.843 34.4439 53.7929 30.3083 60.8903 26.9204C54.8719 36.149 51.3605 47.1442 51.3605 58.9472C51.3605 70.7501 54.8719 81.7447 60.8903 90.9741C53.7929 87.5869 46.843 83.4506 40.0582 78.5696C29.7173 71.1292 22.2011 63.6041 17.9723 58.9472ZM180.943 78.5696C174.16 83.4506 167.209 87.5854 160.114 90.9733C166.131 81.7455 169.643 70.7494 169.643 58.9472C169.643 47.145 166.131 36.1497 160.114 26.9211C167.209 30.3083 174.16 34.4439 180.943 39.3248C191.283 46.7653 198.8 54.2902 203.028 58.9472C198.797 63.6071 191.283 71.1307 180.943 78.5696Z" fill="black"/>
</svg>
