<svg width="20" height="20" viewBox="0 0 24 20" fill="#6D6C6C" xmlns="http://www.w3.org/2000/svg">
    <path
        d="M23.2019 8.58496H0.799377H0.098877V9.98596H0.799377V10.2045V10.6855V23.9875H2.19938V10.6855H23.2019V9.98596H23.9014V8.58496H23.2019Z"
        />
    <path
        d="M23.1989 11.8018H14.8279V14.8573H23.1989V11.8018ZM19.0309 14.0288C18.6444 14.0288 18.3319 13.7168 18.3319 13.3298C18.3319 12.9433 18.6444 12.6298 19.0309 12.6298C19.4184 12.6298 19.7309 12.9433 19.7309 13.3298C19.7314 13.7168 19.4189 14.0288 19.0309 14.0288Z" />
    <path
        d="M14.8463 19.1076H23.2153V15.9346H14.8463V19.1076ZM19.0308 16.8216C19.4183 16.8216 19.7308 17.1341 19.7308 17.5211C19.7308 17.9081 19.4183 18.2216 19.0308 18.2216C18.6443 18.2216 18.3318 17.9081 18.3318 17.5211C18.3318 17.1341 18.6443 16.8216 19.0308 16.8216Z" />
    <path
        d="M14.8279 23.9867H23.1989V20.1797H14.8279V23.9867ZM19.0309 21.3832C19.4184 21.3832 19.7309 21.6967 19.7309 22.0832C19.7309 22.4707 19.4184 22.7827 19.0309 22.7827C18.6444 22.7827 18.3319 22.4707 18.3319 22.0832C18.3319 21.6967 18.6444 21.3832 19.0309 21.3832Z" />
    <path
        d="M4.06096 7.2265H4.43846H4.51746H12.9455H13.1865H13.4025H13.961H13.966V6.663V6.59V0.563V0H13.838H13.4025H12.9455H4.51746H4.06446H4.06096H3.50096V0.521C3.49946 0.5355 3.49646 0.549 3.49646 0.563V6.3225V6.663V7.2265H3.50096H4.06096ZM4.51746 1.016H12.9455V6.056H4.51746V1.016Z" />
</svg>