<svg width="20" height="20" viewBox="0 0 20 20" fill="#969696" xmlns="http://www.w3.org/2000/svg">
    <path
        d="M9.99976 0C4.47976 0 -0.000244141 4.48 -0.000244141 10C-0.000244141 15.52 4.47976 20 9.99976 20C15.5198 20 19.9998 15.52 19.9998 10C19.9998 4.48 15.5198 0 9.99976 0ZM9.99976 3C11.6598 3 12.9998 4.34 12.9998 6C12.9998 7.66 11.6598 9 9.99976 9C8.33976 9 6.99976 7.66 6.99976 6C6.99976 4.34 8.33976 3 9.99976 3ZM9.99976 17.2C7.49976 17.2 5.28976 15.92 3.99976 13.98C4.02976 11.99 7.99976 10.9 9.99976 10.9C11.9898 10.9 15.9698 11.99 15.9998 13.98C14.7098 15.92 12.4998 17.2 9.99976 17.2Z" />
</svg>